<?xml version="1.0" encoding="utf-8"?>
<!-- Generator: Adobe Illustrator 27.3.1, SVG Export Plug-In . SVG Version: 6.00 Build 0)  -->
<svg version="1.1" xmlns="http://www.w3.org/2000/svg" xmlns:xlink="http://www.w3.org/1999/xlink" x="0px" y="0px"
	 viewBox="0 0 500 500" style="enable-background:new 0 0 500 500;" xml:space="preserve">
<style type="text/css">
	.st0{fill:#A6E3D6;}
	.st1{fill:#FFFFFF;stroke:#1C2E5A;stroke-width:3.5;stroke-linecap:round;stroke-linejoin:round;stroke-miterlimit:10;}
	.st2{fill:#FFFFFF;}
	.st3{fill:none;stroke:#1C2E5A;stroke-width:3.5;stroke-linecap:round;stroke-linejoin:round;stroke-miterlimit:10;}
	.st4{fill:#A8D8FF;}
	.st5{fill:#7CB2DE;}
	.st6{fill:#FFD06C;}
	.st7{fill:#6FD198;}
	.st8{fill:none;stroke:#3DB88A;stroke-width:3.5;stroke-linecap:round;stroke-linejoin:round;stroke-miterlimit:10;}
</style>
<g id="BACKGROUND">
</g>
<g id="OBJECTS">
	<g>
		
			<ellipse transform="matrix(0.7071 -0.7071 0.7071 0.7071 -105.6283 254.3886)" class="st0" cx="254.26" cy="254.7" rx="200.63" ry="200.63"/>
		<polygon class="st1" points="471.4,334.23 433.79,298.92 484.78,309.37 		"/>
		<g>
			<g>
				<rect x="116.74" y="224.95" class="st2" width="275.03" height="181.61"/>
				<rect x="116.74" y="224.95" class="st3" width="275.03" height="181.61"/>
			</g>
			<g>
				<path class="st4" d="M112.59,455.32h283.34c9.29,0,16.82-7.53,16.82-16.82v-37.71c0-9.29-7.53-16.82-16.82-16.82H112.59
					c-9.29,0-16.82,7.53-16.82,16.82v37.71C95.77,447.79,103.3,455.32,112.59,455.32z"/>
				<g>
					<rect x="197.66" y="383.97" class="st5" width="25.78" height="71.35"/>
					<path class="st5" d="M110.25,388.99v61.32c4.91,3.16,10.74,5.02,17.01,5.02h8.77v-71.35h-8.77
						C120.98,383.97,115.15,385.83,110.25,388.99z"/>
					<rect x="153.95" y="383.97" class="st5" width="25.78" height="71.35"/>
					<rect x="241.37" y="383.97" class="st5" width="25.78" height="71.35"/>
					<path class="st5" d="M398.27,450.31v-61.32c-4.91-3.16-10.74-5.02-17.01-5.02h-8.77v71.35h8.77
						C387.54,455.32,393.37,453.47,398.27,450.31z"/>
					<rect x="285.08" y="383.97" class="st5" width="25.78" height="71.35"/>
					<rect x="328.79" y="383.97" class="st5" width="25.78" height="71.35"/>
				</g>
				<path class="st3" d="M112.59,455.32h283.34c9.29,0,16.82-7.53,16.82-16.82v-37.71c0-9.29-7.53-16.82-16.82-16.82H112.59
					c-9.29,0-16.82,7.53-16.82,16.82v37.71C95.77,447.79,103.3,455.32,112.59,455.32z"/>
			</g>
			<g>
				<path class="st2" d="M325.45,254.7c179.52,8.98,170.88-195.91,59.71-200.62c-84.8-3.59-93.73,82.43-93.73,82.43
					s-16.49-36.11-49.85-34.15c-33.36,1.96-43.57,34.15-43.57,34.15C136.78,72.13,43.36,96.73,43.36,181.51
					s90.28,83.74,104.41,66.47L325.45,254.7z"/>
				<path class="st3" d="M347.5,254.71c156.54-8.22,144.06-196.13,37.66-200.63c-84.8-3.59-93.73,82.43-93.73,82.43
					s-16.49-36.11-49.85-34.15c-33.36,1.96-43.57,34.15-43.57,34.15C136.78,72.13,43.36,96.73,43.36,181.51
					s90.28,83.74,104.41,66.47"/>
				<path class="st3" d="M198.01,136.5c0,0,4.7,6.59,6.05,12.45"/>
			</g>
			
				<ellipse transform="matrix(0.1622 -0.9868 0.9868 0.1622 -59.0569 483.7876)" class="st6" cx="255.37" cy="276.67" rx="74.85" ry="74.85"/>
			<g>
				<path class="st7" d="M262.09,309.29c21.03-21.03,19.43-46.17-6.24-66.47c-35.06-27.72-92.32-32.08-92.32-32.08
					s4.36,57.26,32.08,92.32C215.92,328.72,241.07,330.31,262.09,309.29z"/>
				<path class="st8" d="M216.1,268.11c0,0,10.51,35.48,45.99,41.17"/>
				<path class="st3" d="M262.09,309.29c21.03-21.03,19.43-46.17-6.24-66.47c-35.06-27.72-92.32-32.08-92.32-32.08
					s4.36,57.26,32.08,92.32C215.92,328.72,241.07,330.31,262.09,309.29z"/>
			</g>
			<g>
				<path class="st7" d="M289.73,316.39c29.73,0,46.39-18.91,42.59-51.42c-5.19-44.39-42.59-87.96-42.59-87.96
					s-37.4,43.57-42.59,87.96C243.34,297.49,259.99,316.39,289.73,316.39z"/>
				<path class="st8" d="M286.32,254.76c0,0-17.65,32.52,3.41,61.64"/>
				<path class="st3" d="M289.73,316.39c29.73,0,46.39-18.91,42.59-51.42c-5.19-44.39-42.59-87.96-42.59-87.96
					s-37.4,43.57-42.59,87.96C243.34,297.49,259.99,316.39,289.73,316.39z"/>
			</g>
		</g>
		<polygon class="st1" points="72.33,366.87 53.63,358.81 81.15,328.44 		"/>
		<polygon class="st1" points="31.43,293.32 75.84,292.84 42.16,316.57 		"/>
		<polygon class="st1" points="187.53,43.11 204.14,31.35 215.75,70.65 		"/>
		<polygon class="st1" points="271.62,46.49 248.91,84.65 246.18,43.54 		"/>
		<polygon class="st1" points="474.44,268.11 435.33,261.48 472.44,246.49 		"/>
	</g>
</g>
<g id="TEXTS">
</g>
</svg>
